<?xml version="1.0" encoding="utf-8"?>
<!-- Generator: Adobe Illustrator 16.0.0, SVG Export Plug-In . SVG Version: 6.00 Build 0)  -->
<!DOCTYPE svg PUBLIC "-//W3C//DTD SVG 1.1//EN" "http://www.w3.org/Graphics/SVG/1.1/DTD/svg11.dtd">
<svg version="1.1" id="Layer_1" xmlns="http://www.w3.org/2000/svg" xmlns:xlink="http://www.w3.org/1999/xlink" x="0px" y="0px"
	 width="140px" height="120px" viewBox="0 0 140 120" enable-background="new 0 0 140 120" xml:space="preserve">
<g>
	<g>
		<g>
			<circle fill="#FFFFFF" cx="15.338" cy="42.669" r="15.338"/>
			<path fill="#5FA5DB" d="M21.734,39.39c0.012,0.144,0.012,0.287,0.012,0.43c0,4.361-3.322,9.389-9.39,9.389
				c-1.869,0-3.606-0.542-5.065-1.482c0.265,0.032,0.519,0.043,0.797,0.043c1.541,0,2.962-0.521,4.095-1.41
				c-1.45-0.031-2.666-0.981-3.084-2.288c0.204,0.03,0.407,0.051,0.622,0.051c0.297,0,0.593-0.041,0.868-0.113
				c-1.511-0.305-2.646-1.633-2.646-3.237c0-0.01,0-0.03,0-0.041c0.439,0.246,0.948,0.398,1.491,0.42
				c-0.89-0.594-1.473-1.604-1.473-2.748c0-0.614,0.164-1.176,0.45-1.668c1.625,2.004,4.064,3.312,6.803,3.455
				c-0.05-0.246-0.079-0.5-0.079-0.758c0-1.817,1.469-3.299,3.298-3.299c0.95,0,1.808,0.397,2.411,1.041
				c0.746-0.143,1.461-0.418,2.094-0.797c-0.243,0.768-0.765,1.411-1.45,1.818c0.664-0.071,1.309-0.254,1.9-0.512
				C22.938,38.336,22.379,38.92,21.734,39.39z"/>
		</g>
		<g>
			<circle fill="#FFFFFF" cx="51.345" cy="42.669" r="15.338"/>
			<path fill="#3F5B95" d="M55.76,36.989h-1.604c-1.258,0-1.491,0.604-1.491,1.472v1.931h2.991l-0.396,3.022h-2.596v7.755h-3.126
				v-7.755h-2.605v-3.022h2.605v-2.227c0-2.586,1.583-3.994,3.893-3.994c1.104,0,2.054,0.082,2.329,0.122V36.989z"/>
		</g>
		<g>
			<circle fill="#FFFFFF" cx="87.351" cy="42.669" r="15.338"/>
			<path fill="#DA4C39" d="M89.608,46.978c0,0.625-0.184,1.236-0.489,1.769c-1.052,1.787-3.248,2.422-5.198,2.422
				c-1.533,0-3.423-0.397-4.271-1.828c-0.245-0.399-0.377-0.868-0.377-1.34c0-1.153,0.715-2.114,1.664-2.705
				c1.194-0.746,2.748-0.932,4.127-1.021c-0.357-0.471-0.644-0.891-0.644-1.504c0-0.325,0.093-0.582,0.214-0.867
				c-0.234,0.021-0.46,0.042-0.695,0.042c-1.99,0-3.584-1.451-3.584-3.483c0-1.125,0.531-2.229,1.379-2.964
				c1.104-0.948,2.666-1.326,4.088-1.326h4.27l-1.41,0.897h-1.338c0.95,0.807,1.532,1.707,1.532,2.994
				c0,2.646-2.421,2.942-2.421,4.24C86.454,43.647,89.608,44.099,89.608,46.978z M88.158,47.849c0-1.381-1.368-2.218-2.358-2.933
				c-0.164-0.021-0.328-0.021-0.49-0.021c-1.664,0-4.137,0.531-4.137,2.636c0,1.991,2.154,2.708,3.809,2.708
				C86.493,50.239,88.158,49.604,88.158,47.849z M86.433,40.708c0.418-0.45,0.543-1.021,0.543-1.625c0-1.511-0.89-4.076-2.729-4.076
				c-0.571,0-1.165,0.286-1.513,0.736c-0.367,0.46-0.479,1.062-0.479,1.636c0,1.532,0.869,3.941,2.706,3.941
				C85.472,41.319,86.075,41.076,86.433,40.708z M95.433,41.29v1.104h-2.176v2.237h-1.072v-2.237h-2.166V41.29h2.166v-2.218h1.072
				v2.218H95.433z"/>
		</g>
		<g>
			<circle fill="#FFFFFF" cx="123.357" cy="42.669" r="15.338"/>
			<path fill="#3879B2" d="M117.389,38.664h-0.019c-1.136,0-1.86-0.774-1.86-1.747c0-0.99,0.758-1.747,1.9-1.747
				c1.154,0,1.869,0.757,1.879,1.747C119.3,37.89,118.564,38.664,117.389,38.664z M119.074,50.168h-3.369V40.043h3.369V50.168z
				 M131.201,50.168h-3.359v-5.416c0-1.356-0.492-2.287-1.707-2.287c-0.93,0-1.482,0.623-1.727,1.226
				c-0.082,0.226-0.113,0.52-0.113,0.826v5.65h-3.359c0.041-9.174,0-10.125,0-10.125h3.359v1.473h-0.02
				c0.438-0.697,1.235-1.707,3.055-1.707c2.217,0,3.871,1.45,3.871,4.555V50.168L131.201,50.168z"/>
		</g>
	</g>
	<g>
		<g>
			<circle fill="#5FA5DB" cx="15.338" cy="78.676" r="15.338"/>
			<path fill="#FFFFFF" d="M21.734,75.396c0.012,0.145,0.012,0.287,0.012,0.43c0,4.361-3.322,9.389-9.39,9.389
				c-1.869,0-3.606-0.541-5.065-1.482c0.265,0.033,0.519,0.043,0.797,0.043c1.541,0,2.962-0.52,4.095-1.41
				c-1.45-0.031-2.666-0.98-3.084-2.287c0.204,0.029,0.407,0.051,0.622,0.051c0.297,0,0.593-0.041,0.868-0.113
				c-1.511-0.305-2.646-1.633-2.646-3.238c0-0.01,0-0.029,0-0.041c0.439,0.246,0.948,0.398,1.491,0.42
				c-0.89-0.594-1.473-1.604-1.473-2.748c0-0.613,0.164-1.176,0.45-1.668c1.625,2.004,4.064,3.312,6.803,3.455
				c-0.05-0.246-0.079-0.5-0.079-0.758c0-1.816,1.469-3.299,3.298-3.299c0.95,0,1.808,0.398,2.411,1.041
				c0.746-0.143,1.461-0.418,2.094-0.797c-0.243,0.768-0.765,1.412-1.45,1.818c0.664-0.07,1.309-0.254,1.9-0.512
				C22.938,74.344,22.379,74.928,21.734,75.396z"/>
		</g>
		<g>
			<circle fill="#3F5B95" cx="51.345" cy="78.676" r="15.338"/>
			<path fill="#FFFFFF" d="M55.76,72.996h-1.604c-1.258,0-1.491,0.604-1.491,1.473v1.93h2.991l-0.396,3.023h-2.596v7.754h-3.126
				v-7.754h-2.605v-3.023h2.605v-2.227c0-2.586,1.583-3.994,3.893-3.994c1.104,0,2.054,0.082,2.329,0.123V72.996z"/>
		</g>
		<g>
			<circle fill="#DA4C39" cx="87.351" cy="78.676" r="15.338"/>
			<path fill="#FFFFFF" d="M89.608,82.984c0,0.625-0.184,1.236-0.489,1.77c-1.052,1.787-3.248,2.422-5.198,2.422
				c-1.533,0-3.423-0.398-4.271-1.828c-0.245-0.4-0.377-0.869-0.377-1.34c0-1.154,0.715-2.115,1.664-2.705
				c1.194-0.746,2.748-0.932,4.127-1.021c-0.357-0.471-0.644-0.891-0.644-1.504c0-0.324,0.093-0.582,0.214-0.867
				c-0.234,0.021-0.46,0.043-0.695,0.043c-1.99,0-3.584-1.451-3.584-3.484c0-1.125,0.531-2.229,1.379-2.963
				c1.104-0.949,2.666-1.326,4.088-1.326h4.27l-1.41,0.896h-1.338c0.95,0.807,1.532,1.707,1.532,2.994
				c0,2.646-2.421,2.943-2.421,4.24C86.454,79.654,89.608,80.105,89.608,82.984z M88.158,83.855c0-1.381-1.368-2.217-2.358-2.932
				c-0.164-0.021-0.328-0.021-0.49-0.021c-1.664,0-4.137,0.531-4.137,2.637c0,1.99,2.154,2.707,3.809,2.707
				C86.493,86.246,88.158,85.611,88.158,83.855z M86.433,76.715c0.418-0.449,0.543-1.021,0.543-1.625c0-1.51-0.89-4.076-2.729-4.076
				c-0.571,0-1.165,0.287-1.513,0.736c-0.367,0.461-0.479,1.062-0.479,1.637c0,1.531,0.869,3.941,2.706,3.941
				C85.472,77.326,86.075,77.084,86.433,76.715z M95.433,77.297V78.4h-2.176v2.238h-1.072V78.4h-2.166v-1.104h2.166V75.08h1.072
				v2.217H95.433z"/>
		</g>
		<g>
			<circle fill="#3879B2" cx="123.357" cy="78.676" r="15.338"/>
			<path fill="#FFFFFF" d="M117.389,74.672h-0.019c-1.136,0-1.86-0.775-1.86-1.748c0-0.99,0.758-1.746,1.9-1.746
				c1.154,0,1.869,0.756,1.879,1.746C119.3,73.896,118.564,74.672,117.389,74.672z M119.074,86.176h-3.369V76.051h3.369V86.176z
				 M131.201,86.176h-3.359V80.76c0-1.357-0.492-2.287-1.707-2.287c-0.93,0-1.482,0.623-1.727,1.225
				c-0.082,0.227-0.113,0.52-0.113,0.826v5.65h-3.359c0.041-9.174,0-10.125,0-10.125h3.359v1.473h-0.02
				c0.438-0.697,1.235-1.707,3.055-1.707c2.217,0,3.871,1.451,3.871,4.555V86.176L131.201,86.176z"/>
		</g>
	</g>
	<g>
		<path fill="#FFFFFF" d="M19.033,117.766c0,0.34-0.274,0.613-0.612,0.613H0.612c-0.338,0-0.612-0.273-0.612-0.613V99.957
			c0-0.338,0.274-0.611,0.612-0.611h17.809c0.338,0,0.612,0.273,0.612,0.611V117.766z"/>
		<path fill="#A7A6A6" d="M14.437,106.34c0.008,0.109,0.008,0.219,0.008,0.328c0,3.357-2.555,7.223-7.223,7.223
			c-1.438,0-2.774-0.416-3.897-1.139c0.204,0.023,0.4,0.031,0.612,0.031c1.188,0,2.279-0.4,3.152-1.084
			c-1.116-0.023-2.052-0.756-2.374-1.762c0.157,0.025,0.315,0.041,0.479,0.041c0.229,0,0.455-0.033,0.668-0.088
			c-1.164-0.234-2.035-1.258-2.035-2.49c0-0.008,0-0.023,0-0.031c0.338,0.188,0.73,0.305,1.147,0.322
			c-0.685-0.457-1.132-1.234-1.132-2.113c0-0.473,0.126-0.904,0.346-1.283c1.25,1.541,3.128,2.547,5.233,2.656
			c-0.038-0.188-0.062-0.385-0.062-0.58c0-1.4,1.131-2.539,2.537-2.539c0.731,0,1.392,0.307,1.854,0.801
			c0.574-0.109,1.124-0.32,1.612-0.611c-0.189,0.588-0.59,1.084-1.116,1.398c0.51-0.055,1.006-0.197,1.461-0.393
			C15.364,105.529,14.931,105.977,14.437,106.34z"/>
	</g>
	<g>
		<path fill="#A7A6A6" d="M43.397,117.766c0,0.34-0.274,0.613-0.612,0.613H24.977c-0.338,0-0.612-0.273-0.612-0.613V99.957
			c0-0.338,0.274-0.611,0.612-0.611h17.809c0.338,0,0.612,0.273,0.612,0.611V117.766z"/>
		<path fill="#FFFFFF" d="M38.801,106.34c0.008,0.109,0.008,0.219,0.008,0.328c0,3.357-2.555,7.223-7.223,7.223
			c-1.438,0-2.774-0.416-3.897-1.139c0.204,0.023,0.4,0.031,0.612,0.031c1.188,0,2.279-0.4,3.152-1.084
			c-1.116-0.023-2.052-0.756-2.374-1.762c0.157,0.025,0.315,0.041,0.479,0.041c0.229,0,0.455-0.033,0.668-0.088
			c-1.164-0.234-2.035-1.258-2.035-2.49c0-0.008,0-0.023,0-0.031c0.338,0.188,0.73,0.305,1.147,0.322
			c-0.685-0.457-1.132-1.234-1.132-2.113c0-0.473,0.126-0.904,0.346-1.283c1.25,1.541,3.128,2.547,5.233,2.656
			c-0.038-0.188-0.062-0.385-0.062-0.58c0-1.4,1.131-2.539,2.537-2.539c0.731,0,1.392,0.307,1.854,0.801
			c0.574-0.109,1.124-0.32,1.612-0.611c-0.189,0.588-0.59,1.084-1.116,1.398c0.51-0.055,1.006-0.197,1.461-0.393
			C39.729,105.529,39.295,105.977,38.801,106.34z"/>
	</g>
	<g>
		<rect fill="none" width="22" height="22"/>
		<g>
			<circle fill="#4B4A4B" cx="2.058" cy="11" r="2.059"/>
			<circle fill="#4B4A4B" cx="11.001" cy="11" r="2.059"/>
			<circle fill="#4B4A4B" cx="19.941" cy="11" r="2.059"/>
		</g>
	</g>
	<g>
		<rect x="27.324" fill="none" width="22" height="22"/>
		<path fill="#4B4A4B" d="M49.289,10.744c-0.008-0.049-0.029-0.131-0.047-0.178c-0.034-0.092-0.081-0.178-0.158-0.281
			c-0.002-0.002-0.004-0.004-0.005-0.006c-0.028-0.045-0.062-0.086-0.099-0.125l-3.703-3.78c-0.449-0.451-1.24-0.452-1.684-0.011
			c-0.468,0.457-0.476,1.213-0.017,1.684l1.718,1.755H28.516c-0.656,0-1.191,0.534-1.191,1.191s0.535,1.19,1.191,1.19h16.779
			l-1.718,1.756c-0.224,0.228-0.346,0.528-0.341,0.848c0.003,0.316,0.13,0.613,0.355,0.835c0.224,0.222,0.521,0.343,0.834,0.343
			c0.32,0,0.631-0.131,0.854-0.357l3.692-3.772v-0.001c0.025-0.025,0.051-0.053,0.072-0.081c0.084-0.099,0.148-0.206,0.178-0.289
			c0.027-0.062,0.049-0.122,0.06-0.188c0.021-0.069,0.042-0.211,0.042-0.282C49.324,10.869,49.299,10.77,49.289,10.744z"/>
	</g>
</g>
</svg>
